<?xml version="1.0" standalone="no"?>
<!DOCTYPE svg PUBLIC "-//W3C//DTD SVG 20010904//EN"
 "http://www.w3.org/TR/2001/REC-SVG-20010904/DTD/svg10.dtd">
<svg version="1.0" xmlns="http://www.w3.org/2000/svg"
 width="700.000000pt" height="700.000000pt" viewBox="0 0 700.000000 700.000000"
 preserveAspectRatio="xMidYMid meet">
<metadata>
Created by potrace 1.14, written by Peter Selinger 2001-2017
</metadata>
<g transform="translate(0.000000,700.000000) scale(0.100000,-0.100000)"
fill="#000000" stroke="none">
<path d="M4725 6329 c-535 -42 -1006 -388 -1206 -885 -101 -250 -130 -544 -79
-804 4 -25 6 -47 4 -49 -2 -3 -68 1 -146 7 -948 82 -1847 503 -2518 1182 -69
69 -156 163 -195 209 -80 95 -74 96 -130 -24 -140 -303 -171 -642 -88 -960 81
-310 264 -589 506 -772 34 -25 66 -50 72 -55 11 -10 -71 -3 -200 18 -108 18
-267 70 -364 119 l-71 35 0 -67 c0 -92 23 -239 55 -348 108 -373 381 -700 730
-874 89 -44 239 -99 319 -116 38 -8 32 -12 -50 -30 -93 -21 -378 -31 -473 -16
-40 6 -76 10 -78 8 -2 -3 7 -33 20 -68 79 -210 228 -422 396 -566 242 -206
498 -312 845 -349 l60 -6 -25 -19 c-161 -129 -523 -328 -739 -407 -389 -142
-830 -206 -1199 -174 -69 6 -126 10 -128 8 -6 -5 213 -131 342 -197 883 -446
1905 -555 2890 -308 906 228 1690 775 2239 1564 324 467 558 1016 675 1586 50
243 84 603 80 833 l-3 130 64 48 c111 84 267 226 358 327 133 146 280 336 270
347 -3 2 -29 -6 -59 -20 -132 -58 -415 -139 -594 -170 -147 -26 -149 -24 -50
46 205 146 384 368 479 594 18 44 36 88 40 100 5 17 -25 5 -166 -66 -223 -111
-465 -198 -665 -240 l-62 -13 -78 73 c-286 264 -684 401 -1078 369z m-1682
-2032 c166 -58 268 -148 382 -340 38 -64 72 -117 75 -117 3 0 37 53 75 117
125 209 259 316 450 358 118 26 314 17 420 -19 200 -69 345 -211 424 -415 59
-153 61 -183 61 -952 l0 -699 -250 0 -249 0 -3 688 c-3 786 2 742 -94 839 -66
66 -130 87 -248 81 -180 -10 -280 -102 -322 -297 -10 -50 -14 -158 -14 -448
l0 -383 -250 0 -250 0 0 383 c0 402 -6 464 -49 561 -28 64 -93 130 -154 157
-71 31 -193 37 -272 15 -45 -14 -69 -29 -109 -69 -96 -97 -91 -53 -94 -839
l-3 -688 -249 0 -250 0 0 699 c0 580 3 713 15 786 53 302 243 522 517 595 60
17 98 19 218 17 126 -3 155 -7 223 -30z"/>
</g>
</svg>
