<?xml version="1.0" encoding="UTF-8" standalone="no"?>
<svg
   version="1.1"
   id="Logo"
   x="0px"
   y="0px"
   viewBox="0 0 248 248"
   sodipodi:docname="Mastodon-Redirect.svg"
   width="248"
   height="248"
   inkscape:export-filename="icon.png"
   inkscape:export-xdpi="92.903229"
   inkscape:export-ydpi="92.903229"
   inkscape:version="1.2 (dc2aedaf03, 2022-05-15)"
   xmlns:inkscape="http://www.inkscape.org/namespaces/inkscape"
   xmlns:sodipodi="http://sodipodi.sourceforge.net/DTD/sodipodi-0.dtd"
   xmlns="http://www.w3.org/2000/svg"
   xmlns:svg="http://www.w3.org/2000/svg">
  <sodipodi:namedview
     id="namedview16"
     pagecolor="#505050"
     bordercolor="#eeeeee"
     borderopacity="1"
     inkscape:showpageshadow="0"
     inkscape:pageopacity="0"
     inkscape:pagecheckerboard="0"
     inkscape:deskcolor="#505050"
     showgrid="false"
     inkscape:zoom="2.4395161"
     inkscape:cx="29.923967"
     inkscape:cy="150.02975"
     inkscape:window-width="2560"
     inkscape:window-height="1417"
     inkscape:window-x="-8"
     inkscape:window-y="-8"
     inkscape:window-maximized="1"
     inkscape:current-layer="Logo" />
  <defs
     id="defs7">
    <linearGradient
       gradientUnits="userSpaceOnUse"
       x1="124.075"
       y1="1.497"
       x2="124.075"
       y2="201.50999"
       id="gradient-0">
      <stop
         offset="0"
         style="stop-color: rgb(99, 100, 255);"
         id="stop2" />
      <stop
         offset="1"
         style="stop-color: rgb(86, 58, 204);"
         id="stop4" />
    </linearGradient>
  </defs>
  <style
     type="text/css"
     id="style9">
	.st0{fill:#1D9BF0;}
</style>
  <g
     id="Logo_1_"
     transform="translate(0,21.999624)">
    <path
       id="white_background"
       class="st0"
       d="m 221.95,51.29 c 0.15,2.17 0.15,4.34 0.15,6.53 0,66.73 -50.8,143.69 -143.69,143.69 v -0.04 C 50.97,201.51 24.1,193.65 1,178.83 c 3.99,0.48 8,0.72 12.02,0.73 22.74,0.02 44.83,-7.61 62.72,-21.66 -21.61,-0.41 -40.56,-14.5 -47.18,-35.07 7.57,1.46 15.37,1.16 22.8,-0.87 C 27.8,117.2 10.85,96.5 10.85,72.46 c 0,-0.22 0,-0.43 0,-0.64 7.02,3.91 14.88,6.08 22.92,6.32 C 11.58,63.31 4.74,33.79 18.14,10.71 c 25.64,31.55 63.47,50.73 104.08,52.76 -4.07,-17.54 1.49,-35.92 14.61,-48.25 20.34,-19.12 52.33,-18.14 71.45,2.19 11.31,-2.23 22.15,-6.38 32.07,-12.26 -3.77,11.69 -11.66,21.62 -22.2,27.93 10.01,-1.18 19.79,-3.86 29,-7.95 -6.78,10.16 -15.32,19.01 -25.2,26.16 z"
       style="fill:url(#gradient-0)" />
  </g>
  <path
     d="m 174.811,124.35 v 44.677 h -17.705 v -43.363 c 0,-9.128 -3.805,-13.784 -11.543,-13.784 -8.506,0 -12.766,5.507 -12.766,16.385 v 23.737 h -17.6 v -23.737 c 0,-10.878 -4.268,-16.385 -12.775,-16.385 -7.693,0 -11.536,4.656 -11.536,13.784 v 43.363 H 73.189 V 124.35 c 0,-9.131 2.332,-16.383 6.992,-21.758 4.808,-5.364 11.118,-8.118 18.946,-8.118 9.063,0 15.91,3.485 20.476,10.445 l 4.405,7.395 4.412,-7.395 c 4.566,-6.96 11.415,-10.445 20.46,-10.445 7.823,0 14.131,2.754 18.953,8.118 4.657,5.37 6.982,12.622 6.978,21.758 z"
     fill="#ffffff"
     id="path13" />
</svg>
